<svg clip-rule="evenodd" fill-rule="evenodd" stroke-linejoin="round" stroke-miterlimit="2" viewBox="0 0 400 400" xmlns="http://www.w3.org/2000/svg"><path d="m400 24c0-13.246-10.754-24-24-24h-352c-13.246 0-24 10.754-24 24v352c0 13.246 10.754 24 24 24h352c13.246 0 24-10.754 24-24z" fill="#120b19"/><path d="m195.531 193.651-13.521 13.522-7.125-17.238h-37.411l-7.137 17.267h-19.107l35.914-80.577h18.418l29.97 67.026zm-26.517-17.874-12.777-30.85-12.777 30.85zm90.913-30.8c-4.284-2.565-9.073-3.848-14.365-3.848-5.142 0-9.708 1.074-13.698 3.223s-7.098 5.18-9.324 9.093c-2.226 3.914-3.338 8.403-3.338 13.468 0 4.988 1.112 9.44 3.338 13.353 2.226 3.914 5.314 6.964 9.266 9.151s8.46 3.28 13.525 3.28c5.372 0 10.207-1.15 14.504-3.453v-23.597h17.037v32.691c-4.375 3.3-9.44 5.832-15.195 7.597s-11.55 2.648-17.381 2.648c-8.365 0-15.885-1.785-22.562-5.353-6.676-3.568-11.914-8.518-15.712-14.849-3.799-6.33-5.698-13.487-5.698-21.468 0-7.98 1.9-15.137 5.698-21.468 3.798-6.33 9.074-11.28 15.827-14.849 6.753-3.568 14.35-5.352 22.792-5.352 7.06 0 13.468 1.189 19.223 3.568a39.723 39.723 0 0 1 7.891 4.337zm92.565-18.352-14.964 14.964h-27.265v17.497h37.41v14.504h-37.41v18.647h43.856v14.965h-62.39v-80.577zm-301.802 61.678c2.237 1.157 4.675 2.162 7.314 3.013 4.758 1.535 9.516 2.303 14.274 2.303 5.295 0 9.208-.787 11.74-2.36 2.533-1.573 3.8-3.665 3.8-6.274 0-1.918-.749-3.51-2.245-4.777-1.497-1.266-3.415-2.283-5.756-3.05-2.34-.767-5.506-1.612-9.496-2.532-6.14-1.458-11.166-2.916-15.08-4.375-3.913-1.458-7.27-3.798-10.072-7.021-2.8-3.223-4.201-7.52-4.201-12.893 0-4.68 1.266-8.92 3.798-12.72 2.533-3.798 6.35-6.81 11.454-9.035 5.103-2.226 11.338-3.338 18.705-3.338a61.99 61.99 0 0 1 15.08 1.841c4.895 1.224 9.18 2.982 12.856 5.273l-11.379 11.379c-5.557-2.353-11.115-3.53-16.672-3.53-5.218 0-9.075.845-11.569 2.533-2.494 1.689-3.74 3.914-3.74 6.677 0 2.762 1.438 4.815 4.316 6.158s7.271 2.667 13.18 3.971c6.14 1.458 11.166 2.916 15.08 4.374 3.913 1.458 7.27 3.76 10.071 6.907 2.801 3.146 4.202 7.405 4.202 12.777 0 4.604-1.286 8.806-3.856 12.605-2.571 3.798-6.427 6.81-11.569 9.036-5.141 2.225-11.396 3.338-18.763 3.338-6.369 0-12.527-.863-18.475-2.59-5.83-1.693-10.535-3.883-14.116-6.571l11.119-11.12zm-13.829 33.661h22.753c5.577 0 10.485 1.041 14.797 3.198 4.313 2.23 7.66 5.205 10.039 9.146 2.38 3.94 3.569 8.55 3.569 13.681s-1.19 9.667-3.57 13.608c-2.379 3.94-5.725 6.99-10.038 9.146-4.312 2.156-9.22 3.271-14.797 3.271h-22.753zm22.307 43.871c3.793 0 7.213-.744 10.113-2.23 2.825-1.413 5.13-3.495 6.692-6.247 1.561-2.677 2.305-5.8 2.305-9.369s-.744-6.692-2.305-9.443c-1.562-2.677-3.867-4.759-6.692-6.246-2.9-1.413-6.32-2.156-10.113-2.156h-12.64v35.691zm43.572-43.871h9.667v52.05h-9.666zm63.724 25.43h9.146v20.746c-2.677 2.156-5.8 3.792-9.369 4.908-3.57 1.115-7.213 1.71-11.005 1.71-5.28 0-10.112-1.116-14.35-3.495-4.239-2.305-7.585-5.428-10.039-9.518s-3.643-8.625-3.643-13.756c0-5.13 1.19-9.666 3.643-13.756 2.454-4.09 5.8-7.212 10.113-9.592 4.238-2.305 9.071-3.42 14.425-3.42 4.387 0 8.328.743 11.897 2.156 3.57 1.413 6.543 3.57 8.997 6.32l-6.097 5.95c-3.941-3.942-8.774-5.95-14.351-5.95-3.643 0-6.915.744-9.74 2.306-2.9 1.561-5.131 3.717-6.693 6.469-1.636 2.75-2.454 5.948-2.454 9.517 0 3.495.818 6.618 2.454 9.37a16.68 16.68 0 0 0 6.692 6.543c2.826 1.561 6.023 2.38 9.667 2.38 4.09 0 7.658-.893 10.707-2.678zm26.322-25.43h9.666v52.05h-9.666zm38.74 8.18h-17.251v-8.18h44.168v8.18h-17.251v43.87h-9.666zm68.334 31.824h-26.025l-5.13 12.046h-9.964l23.422-52.05h9.518l23.497 52.05h-10.113zm-3.197-7.584-9.815-22.753-9.74 22.753zm29.593-32.42h9.666v43.871h27.215v8.18h-36.881v-52.05z" fill="#33d6ff" fill-rule="nonzero"/></svg>
